<svg width="122" height="197" viewBox="0 0 122 197" fill="none" xmlns="http://www.w3.org/2000/svg">
<circle cx="61" cy="71.5" r="27" fill="url(#paint0_linear_201_63)"/>
<path d="M46.6562 75.2969C45.7243 75.2969 44.9598 76.0544 45.0552 76.9815C45.4405 80.7262 47.1019 84.2451 49.7878 86.931C52.8733 90.0166 57.0582 91.75 61.4219 91.75C65.7855 91.75 69.9704 90.0166 73.056 86.931C75.7419 84.2451 77.4033 80.7262 77.7886 76.9815C77.884 76.0544 77.1195 75.2969 76.1875 75.2969L61.4219 75.2969L46.6562 75.2969Z" fill="#363447"/>
<path d="M57.4981 65.1719C58.0342 65.1719 58.4775 64.734 58.3831 64.2063C58.1871 63.1104 57.6604 62.0918 56.8624 61.2938C55.8339 60.2653 54.4389 59.6875 52.9844 59.6875C51.5298 59.6875 50.1349 60.2653 49.1063 61.2938C48.3083 62.0918 47.7817 63.1104 47.5857 64.2063C47.4913 64.734 47.9346 65.1719 48.4706 65.1719C49.0067 65.1719 49.4284 64.7294 49.5734 64.2133C49.7363 63.6337 50.0458 63.0998 50.479 62.6665C51.1435 62.0021 52.0447 61.6288 52.9844 61.6288C53.9241 61.6288 54.8253 62.0021 55.4897 62.6665C55.923 63.0998 56.2324 63.6337 56.3954 64.2133C56.5404 64.7294 56.962 65.1719 57.4981 65.1719Z" fill="#363447"/>
<path d="M73.5294 65.1719C74.0654 65.1719 74.5087 64.734 74.4143 64.2063C74.2183 63.1104 73.6917 62.0918 72.8937 61.2938C71.8651 60.2653 70.4702 59.6875 69.0156 59.6875C67.5611 59.6875 66.1661 60.2653 65.1376 61.2938C64.3396 62.0918 63.8129 63.1104 63.6169 64.2063C63.5225 64.734 63.9658 65.1719 64.5019 65.1719C65.038 65.1719 65.4596 64.7294 65.6046 64.2133C65.7676 63.6337 66.077 63.0998 66.5103 62.6665C67.1747 62.0021 68.0759 61.6288 69.0156 61.6288C69.9553 61.6288 70.8565 62.0021 71.521 62.6665C71.9542 63.0998 72.2637 63.6337 72.4266 64.2133C72.5716 64.7294 72.9933 65.1719 73.5294 65.1719Z" fill="#363447"/>
<path d="M2.03018 142.5V125.045H13.3825V127.696H5.19212V132.435H12.7944V135.085H5.19212V139.849H13.4506V142.5H2.03018ZM18.9947 129.409L21.6367 134.241L24.3214 129.409H27.5856L23.6396 135.955L27.6538 142.5H24.4066L21.6367 137.787L18.8924 142.5H15.6197L19.6083 135.955L15.7219 129.409H18.9947ZM35.19 142.756C33.8832 142.756 32.761 142.469 31.8235 141.895C30.8917 141.321 30.1729 140.528 29.6673 139.517C29.1673 138.5 28.9173 137.33 28.9173 136.006C28.9173 134.676 29.1729 133.503 29.6843 132.486C30.1957 131.463 30.9173 130.668 31.8491 130.099C32.7866 129.526 33.8945 129.239 35.1729 129.239C36.2354 129.239 37.1758 129.435 37.994 129.827C38.8178 130.213 39.4741 130.761 39.9627 131.472C40.4513 132.176 40.7298 133 40.7979 133.943H37.8491C37.7298 133.312 37.4457 132.787 36.9968 132.366C36.5536 131.94 35.9599 131.727 35.2156 131.727C34.5849 131.727 34.0309 131.898 33.5536 132.239C33.0763 132.574 32.7042 133.057 32.4371 133.688C32.1758 134.318 32.0451 135.074 32.0451 135.955C32.0451 136.847 32.1758 137.614 32.4371 138.256C32.6985 138.892 33.065 139.384 33.5366 139.73C34.0138 140.071 34.5735 140.241 35.2156 140.241C35.6701 140.241 36.0763 140.156 36.4343 139.986C36.7979 139.81 37.1019 139.557 37.3462 139.227C37.5906 138.898 37.7582 138.497 37.8491 138.026H40.7979C40.7241 138.952 40.4513 139.773 39.9798 140.489C39.5082 141.199 38.8661 141.756 38.0536 142.159C37.2411 142.557 36.2866 142.756 35.19 142.756ZM49.1268 142.756C47.8143 142.756 46.6808 142.483 45.7262 141.938C44.7773 141.386 44.0472 140.608 43.5359 139.602C43.0245 138.591 42.7688 137.401 42.7688 136.031C42.7688 134.685 43.0245 133.503 43.5359 132.486C44.0529 131.463 44.7745 130.668 45.7006 130.099C46.6268 129.526 47.7148 129.239 48.9648 129.239C49.7717 129.239 50.533 129.369 51.2489 129.631C51.9705 129.886 52.6069 130.284 53.158 130.824C53.7148 131.364 54.1523 132.051 54.4705 132.886C54.7887 133.716 54.9478 134.705 54.9478 135.852V136.798H44.2177V134.719H51.9904C51.9847 134.128 51.8569 133.602 51.6069 133.142C51.3569 132.676 51.0075 132.31 50.5586 132.043C50.1154 131.776 49.5984 131.642 49.0075 131.642C48.3768 131.642 47.8228 131.795 47.3455 132.102C46.8683 132.403 46.4961 132.801 46.229 133.295C45.9677 133.784 45.8342 134.321 45.8285 134.906V136.722C45.8285 137.483 45.9677 138.136 46.2461 138.682C46.5245 139.222 46.9137 139.636 47.4137 139.926C47.9137 140.21 48.4989 140.352 49.1694 140.352C49.6183 140.352 50.0245 140.29 50.3881 140.165C50.7518 140.034 51.0671 139.844 51.3342 139.594C51.6012 139.344 51.8029 139.034 51.9393 138.665L54.82 138.989C54.6381 139.75 54.2915 140.415 53.7802 140.983C53.2745 141.545 52.6268 141.983 51.837 142.295C51.0472 142.602 50.1438 142.756 49.1268 142.756ZM60.6431 125.045V142.5H57.5579V125.045H60.6431ZM69.6112 142.756C68.2987 142.756 67.1651 142.483 66.2106 141.938C65.2617 141.386 64.5316 140.608 64.0202 139.602C63.5089 138.591 63.2532 137.401 63.2532 136.031C63.2532 134.685 63.5089 133.503 64.0202 132.486C64.5373 131.463 65.2589 130.668 66.185 130.099C67.1112 129.526 68.1992 129.239 69.4492 129.239C70.256 129.239 71.0174 129.369 71.7333 129.631C72.4549 129.886 73.0913 130.284 73.6424 130.824C74.1992 131.364 74.6367 132.051 74.9549 132.886C75.2731 133.716 75.4322 134.705 75.4322 135.852V136.798H64.7021V134.719H72.4748C72.4691 134.128 72.3413 133.602 72.0913 133.142C71.8413 132.676 71.4918 132.31 71.043 132.043C70.5998 131.776 70.0827 131.642 69.4918 131.642C68.8612 131.642 68.3072 131.795 67.8299 132.102C67.3526 132.403 66.9805 132.801 66.7134 133.295C66.4521 133.784 66.3185 134.321 66.3129 134.906V136.722C66.3129 137.483 66.4521 138.136 66.7305 138.682C67.0089 139.222 67.3981 139.636 67.8981 139.926C68.3981 140.21 68.9833 140.352 69.6538 140.352C70.1026 140.352 70.5089 140.29 70.8725 140.165C71.2362 140.034 71.5515 139.844 71.8185 139.594C72.0856 139.344 72.2873 139.034 72.4237 138.665L75.3043 138.989C75.1225 139.75 74.7759 140.415 74.2646 140.983C73.7589 141.545 73.1112 141.983 72.3214 142.295C71.5316 142.602 70.6282 142.756 69.6112 142.756ZM81.1275 134.83V142.5H78.0423V129.409H80.9911V131.634H81.1445C81.4457 130.901 81.9258 130.318 82.5849 129.886C83.2496 129.455 84.0707 129.239 85.0479 129.239C85.9513 129.239 86.7383 129.432 87.4087 129.818C88.0849 130.205 88.6076 130.764 88.9769 131.497C89.3519 132.23 89.5366 133.119 89.5309 134.165V142.5H86.4457V134.642C86.4457 133.767 86.2184 133.082 85.7638 132.588C85.315 132.094 84.6928 131.847 83.8974 131.847C83.3576 131.847 82.8775 131.966 82.457 132.205C82.0423 132.437 81.7156 132.776 81.4769 133.219C81.244 133.662 81.1275 134.199 81.1275 134.83ZM99.2042 129.409V131.795H91.6786V129.409H99.2042ZM93.5366 126.273H96.6218V138.562C96.6218 138.977 96.6843 139.295 96.8093 139.517C96.94 139.733 97.1104 139.881 97.3207 139.96C97.5309 140.04 97.7638 140.08 98.0195 140.08C98.2127 140.08 98.3888 140.065 98.5479 140.037C98.7127 140.009 98.8377 139.983 98.9229 139.96L99.4428 142.372C99.2781 142.429 99.0423 142.491 98.7354 142.56C98.4343 142.628 98.065 142.668 97.6275 142.679C96.8548 142.702 96.1587 142.585 95.5394 142.33C94.9201 142.068 94.4286 141.665 94.065 141.119C93.707 140.574 93.5309 139.892 93.5366 139.074V126.273ZM107.439 142.756C106.127 142.756 104.993 142.483 104.039 141.938C103.09 141.386 102.36 140.608 101.848 139.602C101.337 138.591 101.081 137.401 101.081 136.031C101.081 134.685 101.337 133.503 101.848 132.486C102.365 131.463 103.087 130.668 104.013 130.099C104.939 129.526 106.027 129.239 107.277 129.239C108.084 129.239 108.846 129.369 109.561 129.631C110.283 129.886 110.919 130.284 111.471 130.824C112.027 131.364 112.465 132.051 112.783 132.886C113.101 133.716 113.26 134.705 113.26 135.852V136.798H102.53V134.719H110.303C110.297 134.128 110.169 133.602 109.919 133.142C109.669 132.676 109.32 132.31 108.871 132.043C108.428 131.776 107.911 131.642 107.32 131.642C106.689 131.642 106.135 131.795 105.658 132.102C105.181 132.403 104.809 132.801 104.542 133.295C104.28 133.784 104.147 134.321 104.141 134.906V136.722C104.141 137.483 104.28 138.136 104.559 138.682C104.837 139.222 105.226 139.636 105.726 139.926C106.226 140.21 106.811 140.352 107.482 140.352C107.931 140.352 108.337 140.29 108.701 140.165C109.064 140.034 109.38 139.844 109.647 139.594C109.914 139.344 110.115 139.034 110.252 138.665L113.132 138.989C112.951 139.75 112.604 140.415 112.093 140.983C111.587 141.545 110.939 141.983 110.15 142.295C109.36 142.602 108.456 142.756 107.439 142.756ZM119.646 125.045L119.365 137.369H116.62L116.348 125.045H119.646ZM117.993 142.688C117.475 142.688 117.032 142.506 116.663 142.142C116.299 141.778 116.118 141.335 116.118 140.812C116.118 140.301 116.299 139.864 116.663 139.5C117.032 139.136 117.475 138.955 117.993 138.955C118.498 138.955 118.936 139.136 119.305 139.5C119.68 139.864 119.868 140.301 119.868 140.812C119.868 141.159 119.779 141.474 119.603 141.759C119.433 142.043 119.206 142.27 118.922 142.44C118.643 142.605 118.333 142.688 117.993 142.688Z" fill="#81FBB8"/>
<defs>
<linearGradient id="paint0_linear_201_63" x1="61" y1="44.5" x2="61" y2="98.5" gradientUnits="userSpaceOnUse">
<stop stop-color="#81FBB8"/>
<stop offset="1" stop-color="#28C76F"/>
</linearGradient>
</defs>
</svg>
